<svg width="120" height="120" viewBox="0 0 120 120" fill="none" xmlns="http://www.w3.org/2000/svg">
<path d="M68.5 20.9061C54.6968 17.9178 39.731 22.3464 29.8112 33.7578C15.318 50.4303 17.0847 75.6952 33.7573 90.1885C50.4299 104.682 75.6948 102.915 90.188 86.2425C90.8239 85.511 91.4285 84.7629 92.0019 84" stroke="url(#paint0_linear_58_12)" stroke-width="9" stroke-linecap="round"/>
<path fill-rule="evenodd" clip-rule="evenodd" d="M55.326 50.0482C52.5873 50.7681 50.2468 52.5465 48.8193 54.9921C47.3918 57.4377 46.9943 60.3502 47.7142 63.0889C48.4341 65.8276 50.2125 68.1682 52.6581 69.5957C55.1037 71.0232 58.0162 71.4207 60.7549 70.7008L90.5586 54.5865C91.2432 54.4065 91.8284 53.9619 92.1852 53.3505C92.5421 52.7391 92.6415 52.011 92.4615 51.3263C92.2815 50.6416 91.8369 50.0565 91.2255 49.6996C90.6141 49.3427 89.886 49.2434 89.2013 49.4233L55.326 50.0482ZM56.9095 56.0719C58.0506 55.7719 59.2641 55.9375 60.2832 56.5323C61.3022 57.1271 62.0432 58.1023 62.3431 59.2435C62.6431 60.3846 62.4775 61.5981 61.8827 62.6171C61.2879 63.6362 60.3126 64.3771 59.1715 64.6771C58.0304 64.9771 56.8168 64.8114 55.7978 64.2167C54.7788 63.6219 54.0378 62.6466 53.7379 61.5055C53.4379 60.3644 53.6035 59.1508 54.1983 58.1318C54.7931 57.1128 55.7683 56.3718 56.9095 56.0719Z" fill="url(#paint1_linear_58_12)"/>
<defs>
<linearGradient id="paint0_linear_58_12" x1="65.1102" y1="11.442" x2="54.8892" y2="108.558" gradientUnits="userSpaceOnUse">
<stop stop-color="#9B3DF8"/>
<stop offset="1" stop-color="#3C21F3"/>
</linearGradient>
<linearGradient id="paint1_linear_58_12" x1="90.5614" y1="44.0979" x2="78.4133" y2="80.0488" gradientUnits="userSpaceOnUse">
<stop stop-color="#9B3DF8"/>
<stop offset="1" stop-color="#3C21F3"/>
</linearGradient>
</defs>
</svg>
