<svg width="150" height="64" viewBox="0 0 150 64" fill="none" xmlns="http://www.w3.org/2000/svg">
<path d="M65.5455 46.3636C63.9697 46.3636 62.5871 45.9886 61.3977 45.2386C60.2159 44.4886 59.2917 43.4394 58.625 42.0909C57.9659 40.7424 57.6364 39.1667 57.6364 37.3636C57.6364 35.5455 57.9659 33.9583 58.625 32.6023C59.2917 31.2462 60.2159 30.1932 61.3977 29.4432C62.5871 28.6932 63.9697 28.3182 65.5455 28.3182C67.1212 28.3182 68.5 28.6932 69.6818 29.4432C70.8712 30.1932 71.7955 31.2462 72.4545 32.6023C73.1212 33.9583 73.4545 35.5455 73.4545 37.3636C73.4545 39.1667 73.1212 40.7424 72.4545 42.0909C71.7955 43.4394 70.8712 44.4886 69.6818 45.2386C68.5 45.9886 67.1212 46.3636 65.5455 46.3636ZM65.5455 43.9545C66.7424 43.9545 67.7273 43.6477 68.5 43.0341C69.2727 42.4205 69.8447 41.6136 70.2159 40.6136C70.5871 39.6136 70.7727 38.5303 70.7727 37.3636C70.7727 36.197 70.5871 35.1098 70.2159 34.1023C69.8447 33.0947 69.2727 32.2803 68.5 31.6591C67.7273 31.0379 66.7424 30.7273 65.5455 30.7273C64.3485 30.7273 63.3636 31.0379 62.5909 31.6591C61.8182 32.2803 61.2462 33.0947 60.875 34.1023C60.5038 35.1098 60.3182 36.197 60.3182 37.3636C60.3182 38.5303 60.5038 39.6136 60.875 40.6136C61.2462 41.6136 61.8182 42.4205 62.5909 43.0341C63.3636 43.6477 64.3485 43.9545 65.5455 43.9545ZM88.5483 38.8636V28.5455H91.2301V46H88.5483V43.0455H88.3665C87.9574 43.9318 87.321 44.6856 86.4574 45.3068C85.5938 45.9205 84.5028 46.2273 83.1847 46.2273C82.0938 46.2273 81.1241 45.9886 80.2756 45.5114C79.4271 45.0265 78.7604 44.2992 78.2756 43.3295C77.7907 42.3523 77.5483 41.1212 77.5483 39.6364V28.5455H80.2301V39.4545C80.2301 40.7273 80.5862 41.7424 81.2983 42.5C82.018 43.2576 82.9347 43.6364 84.0483 43.6364C84.715 43.6364 85.393 43.4659 86.0824 43.125C86.7794 42.7841 87.3627 42.2614 87.8324 41.5568C88.3097 40.8523 88.5483 39.9545 88.5483 38.8636ZM98.8239 35.5V46H96.142V28.5455H98.733V31.2727H98.9602C99.3693 30.3864 99.9905 29.6742 100.824 29.1364C101.657 28.5909 102.733 28.3182 104.051 28.3182C105.233 28.3182 106.267 28.5606 107.153 29.0455C108.04 29.5227 108.729 30.25 109.222 31.2273C109.714 32.197 109.96 33.4242 109.96 34.9091V46H107.278V35.0909C107.278 33.7197 106.922 32.6515 106.21 31.8864C105.498 31.1136 104.521 30.7273 103.278 30.7273C102.422 30.7273 101.657 30.9129 100.983 31.2841C100.316 31.6553 99.7898 32.197 99.4034 32.9091C99.017 33.6212 98.8239 34.4848 98.8239 35.5ZM122.452 28.5455V30.8182H113.406V28.5455H122.452ZM116.043 24.3636H118.724V41C118.724 41.7576 118.834 42.3258 119.054 42.7045C119.281 43.0758 119.569 43.3258 119.918 43.4545C120.274 43.5758 120.649 43.6364 121.043 43.6364C121.338 43.6364 121.58 43.6212 121.77 43.5909C121.959 43.553 122.111 43.5227 122.224 43.5L122.77 45.9091C122.588 45.9773 122.334 46.0455 122.009 46.1136C121.683 46.1894 121.27 46.2273 120.77 46.2273C120.012 46.2273 119.27 46.0644 118.543 45.7386C117.823 45.4129 117.224 44.9167 116.747 44.25C116.277 43.5833 116.043 42.7424 116.043 41.7273V24.3636ZM129.543 22.7273V46H126.861V22.7273H129.543ZM136.182 52.5455C135.727 52.5455 135.322 52.5076 134.966 52.4318C134.61 52.3636 134.364 52.2955 134.227 52.2273L134.909 49.8636C135.561 50.0303 136.136 50.0909 136.636 50.0455C137.136 50 137.58 49.7765 137.966 49.375C138.36 48.9811 138.72 48.3409 139.045 47.4545L139.545 46.0909L133.091 28.5455H136L140.818 42.4545H141L145.818 28.5455H148.727L141.318 48.5455C140.985 49.447 140.572 50.1932 140.08 50.7841C139.587 51.3826 139.015 51.8258 138.364 52.1136C137.72 52.4015 136.992 52.5455 136.182 52.5455Z" fill="#5628F4"/>
<path d="M36.5332 11.15C29.1715 9.55625 21.1897 11.9182 15.8992 18.0042C8.16946 26.8963 9.1117 40.3709 18.0037 48.1006C26.8958 55.8304 40.3704 54.8881 48.1001 45.9961C48.4393 45.606 48.7617 45.207 49.0675 44.8001" stroke="#5429F5" stroke-width="9" stroke-linecap="round"/>
<path fill-rule="evenodd" clip-rule="evenodd" d="M29.5074 26.6924C28.0467 27.0763 26.7984 28.0248 26.0371 29.3291C25.2757 30.6335 25.0637 32.1868 25.4477 33.6475C25.8317 35.1081 26.7801 36.3564 28.0844 37.1177C29.3888 37.8791 30.9421 38.0911 32.4028 37.7071L48.298 29.1128C48.6632 29.0168 48.9753 28.7797 49.1656 28.4536C49.3559 28.1276 49.4089 27.7392 49.3129 27.3741C49.217 27.0089 48.9798 26.6968 48.6538 26.5065C48.3277 26.3162 47.9393 26.2632 47.5742 26.3591L29.5074 26.6924ZM30.3518 29.905C30.9604 29.745 31.6077 29.8334 32.1511 30.1506C32.6946 30.4678 33.0898 30.9879 33.2498 31.5965C33.4098 32.2051 33.3214 32.8524 33.0042 33.3958C32.687 33.9393 32.1669 34.3345 31.5583 34.4945C30.9497 34.6545 30.3024 34.5661 29.759 34.2489C29.2155 33.9317 28.8203 33.4116 28.6603 32.803C28.5003 32.1944 28.5887 31.5471 28.9059 31.0037C29.2231 30.4602 29.7432 30.065 30.3518 29.905Z" fill="#5429F5"/>
</svg>
